<mxfile host="app.diagrams.net" agent="Mozilla/5.0 (Windows NT 10.0; Win64; x64) AppleWebKit/537.36 (KHTML, like Gecko) Chrome/129.0.0.0 Safari/537.36" version="24.7.7">
  <diagram name="Page-1" id="N2qaACGeDJNn6jV-2qIZ">
    <mxGraphModel dx="1050" dy="565" grid="1" gridSize="10" guides="1" tooltips="1" connect="1" arrows="1" fold="1" page="1" pageScale="1" pageWidth="827" pageHeight="1169" math="0" shadow="0">
      <root>
        <mxCell id="0" />
        <mxCell id="1" parent="0" />
        <mxCell id="F6tfVA9neX-4Vz7wG99A-1" value="" style="rounded=0;whiteSpace=wrap;html=1;shadow=1;strokeWidth=4;" vertex="1" parent="1">
          <mxGeometry x="100" y="160" width="120" height="160" as="geometry" />
        </mxCell>
        <mxCell id="F6tfVA9neX-4Vz7wG99A-2" value="&lt;font style=&quot;font-size: 36px;&quot;&gt;&lt;b&gt;C &lt;/b&gt;Code&lt;/font&gt;" style="text;html=1;align=center;verticalAlign=middle;whiteSpace=wrap;rounded=0;" vertex="1" parent="1">
          <mxGeometry x="110" y="200" width="100" height="80" as="geometry" />
        </mxCell>
        <mxCell id="F6tfVA9neX-4Vz7wG99A-3" value="" style="rounded=0;whiteSpace=wrap;html=1;strokeWidth=4;shadow=1;" vertex="1" parent="1">
          <mxGeometry x="380" y="160" width="190" height="160" as="geometry" />
        </mxCell>
        <mxCell id="F6tfVA9neX-4Vz7wG99A-4" value="" style="endArrow=classic;html=1;rounded=0;exitX=1;exitY=0.5;exitDx=0;exitDy=0;entryX=0;entryY=0.5;entryDx=0;entryDy=0;" edge="1" parent="1" source="F6tfVA9neX-4Vz7wG99A-1" target="F6tfVA9neX-4Vz7wG99A-3">
          <mxGeometry width="50" height="50" relative="1" as="geometry">
            <mxPoint x="390" y="320" as="sourcePoint" />
            <mxPoint x="440" y="270" as="targetPoint" />
          </mxGeometry>
        </mxCell>
        <mxCell id="F6tfVA9neX-4Vz7wG99A-5" value="&lt;font style=&quot;font-size: 36px;&quot;&gt;Runnable&lt;b&gt; exe&lt;/b&gt;&lt;/font&gt;" style="text;html=1;align=center;verticalAlign=middle;whiteSpace=wrap;rounded=0;" vertex="1" parent="1">
          <mxGeometry x="425" y="200" width="100" height="80" as="geometry" />
        </mxCell>
        <mxCell id="F6tfVA9neX-4Vz7wG99A-6" value="&lt;b&gt;&lt;font style=&quot;font-size: 24px;&quot;&gt;Compilation&lt;/font&gt;&lt;/b&gt;" style="text;html=1;align=center;verticalAlign=middle;whiteSpace=wrap;rounded=0;" vertex="1" parent="1">
          <mxGeometry x="270" y="210" width="60" height="30" as="geometry" />
        </mxCell>
      </root>
    </mxGraphModel>
  </diagram>
</mxfile>
